<?xml version="1.0" encoding="UTF-8"?>
<svg id="Capa_1" xmlns="http://www.w3.org/2000/svg" version="1.1" viewBox="0 0 2569.49 283.47">
  <!-- Generator: Adobe Illustrator 30.0.0, SVG Export Plug-In . SVG Version: 2.1.1 Build 123)  -->
  <defs>
    <style>
      .st0 {
        fill: #a59c94;
      }
    </style>
  </defs>
  <g>
    <path class="st0" d="M0,281.59v-4.95h10.75c.85,0,2.39,0,3.07-.51,1.88-1.19,2.05-3.75,2.05-4.78V121.34c0-1.19,0-3.58-1.71-4.78-.85-.68-2.56-.51-3.24-.51H0v-4.95h74.75c48.98,0,83.97,31.74,83.97,84.99s-35.67,85.67-83.97,85.67H0v-.17ZM70.31,276.64c36.01,0,43.01-40.28,43.01-78.68s-7.68-81.92-45.05-81.92h-9.9v160.59h11.95Z"/>
    <path class="st0" d="M402.42,110.93v4.95c-10.24,0-12.8,1.19-16.55,3.07-5.29,2.73-7.68,8.02-8.53,11.78-3.24,12.8-16.9,68.44-37.03,150.87h-29.7c-9.9-33.79-22.87-67.58-32.77-101.37-8.36,33.79-16.9,67.58-25.26,101.37h-30.21l-51.2-159.06c-1.37-3.58-2.56-6.49-5.97-6.49h-6.31v-4.95h75.77v4.95h-11.61c-5.12,0-9.39,1.37-7.17,8.7l39.76,123.05c6.31-25.43,12.63-50.86,18.94-76.29-4.95-16.21-9.9-32.43-14.85-48.81-1.37-3.58-2.05-6.66-5.12-6.66h-4.78v-4.95h73.21v4.95h-11.09c-5.46,0-9.9,2.39-7.68,9.05,12.97,40.28,38.74,122.71,38.57,122.54,14.85-58.71,23.89-100.18,26.28-109.91.68-2.73-.51-9.39-4.61-15.02-4.78-5.63-10.58-6.83-12.8-6.83h-8.7v-4.95h59.39Z"/>
    <path class="st0" d="M481.61,110.93c41.13,0,79.53,30.72,79.53,85.33s-38.06,85.33-79.53,85.33-79.19-30.55-79.19-85.33,38.06-85.33,79.19-85.33ZM481.61,276.64c28.16,0,35.33-30.89,35.33-80.38s-7.17-80.38-35.33-80.38-34.99,30.89-34.99,80.38,6.83,80.38,34.99,80.38Z"/>
  </g>
  <g>
    <path class="st0" d="M2295.58,30.38l6.83-4.95-.34-1.37c-1.19,0-3.07,0-5.12-.51-3.75-.51-11.09-.51-11.09-7.17s3.07-5.63,5.97-5.63c4.44,0,8.36,4.1,11.95,7l1.37-.85c-.68-2.9-2.56-7.51-2.56-10.58s2.9-6.31,6.49-6.31,5.97,3.07,5.97,6.49-2.05,7.68-3.07,10.58l1.02,1.02c2.9-2.05,7.85-6.66,11.61-6.66s6.66,2.39,6.66,6.14c0,8.02-11.95,6.31-16.9,7.17l-.51.85,3.41,2.05c3.07,1.88,7.34,4.44,7.34,8.53s-2.73,6.31-6.14,6.31c-6.31,0-8.36-8.7-9.22-13.65h-1.19l-3.07,7.85c-1.37,3.41-3.41,6.14-7.34,6.14s-5.8-3.24-5.8-6.31,2.05-4.44,3.93-5.97l-.17-.17Z"/>
    <path class="st0" d="M2375.11,30.38l6.83-4.95-.34-1.37c-1.19,0-3.07,0-5.12-.51-3.75-.51-11.09-.51-11.09-7.17s3.07-5.63,5.97-5.63c4.44,0,8.36,4.1,11.95,7l1.37-.85c-.68-2.9-2.56-7.51-2.56-10.58s2.9-6.31,6.49-6.31,5.97,3.07,5.97,6.49-2.05,7.68-3.07,10.58l1.02,1.02c2.9-2.05,7.85-6.66,11.61-6.66s6.66,2.39,6.66,6.14c0,8.02-11.95,6.31-16.9,7.17l-.51.85,3.41,2.05c3.07,1.88,7.34,4.44,7.34,8.53s-2.73,6.31-6.14,6.31c-6.31,0-8.36-8.7-9.22-13.65h-1.19l-3.07,7.85c-1.37,3.41-3.41,6.14-7.34,6.14s-5.8-3.24-5.8-6.31,2.05-4.44,3.93-5.97l-.17-.17Z"/>
    <path class="st0" d="M2454.46,30.38l6.83-4.95-.34-1.37c-1.19,0-3.07,0-5.12-.51-3.75-.51-11.09-.51-11.09-7.17s3.07-5.63,5.97-5.63c4.44,0,8.36,4.1,11.95,7l1.37-.85c-.68-2.9-2.56-7.51-2.56-10.58s2.9-6.31,6.49-6.31,5.97,3.07,5.97,6.49-2.05,7.68-3.07,10.58l1.02,1.02c2.9-2.05,7.85-6.66,11.61-6.66s6.66,2.39,6.66,6.14c0,8.02-11.95,6.31-16.9,7.17l-.51.85,3.41,2.05c3.07,1.88,7.34,4.44,7.34,8.53s-2.73,6.31-6.14,6.31c-6.31,0-8.36-8.7-9.22-13.65h-1.19l-3.07,7.85c-1.37,3.41-3.41,6.14-7.34,6.14s-5.8-3.24-5.8-6.31,2.05-4.44,3.93-5.97l-.17-.17Z"/>
    <path class="st0" d="M2533.82,30.38l6.83-4.95-.34-1.37c-1.19,0-3.07,0-5.12-.51-3.75-.51-11.09-.51-11.09-7.17s3.07-5.63,5.97-5.63c4.44,0,8.36,4.1,11.95,7l1.37-.85c-.68-2.9-2.56-7.51-2.56-10.58s2.9-6.31,6.49-6.31,5.97,3.07,5.97,6.49-2.05,7.68-3.07,10.58l1.02,1.02c2.9-2.05,7.85-6.66,11.61-6.66s6.66,2.39,6.66,6.14c0,8.02-11.95,6.31-16.9,7.17l-.51.85,3.41,2.05c3.07,1.88,7.34,4.44,7.34,8.53s-2.73,6.31-6.14,6.31c-6.31,0-8.36-8.7-9.22-13.65h-1.19l-3.07,7.85c-1.37,3.41-3.41,6.14-7.34,6.14s-5.8-3.24-5.8-6.31,2.05-4.44,3.93-5.97l-.17-.17Z"/>
  </g>
  <g>
    <path class="st0" d="M742.89,110.93v17.92h-74.58v59.05h63.15v17.24h-63.15v76.46h-22.02V110.93h96.59Z"/>
    <path class="st0" d="M769.35,99.84c2.73-2.56,6.31-3.75,10.92-3.75s8.19,1.19,10.92,3.75c2.73,2.56,4.1,5.8,4.1,9.73s-1.37,7.34-4.1,9.73c-2.73,2.56-6.31,3.75-10.92,3.75s-8.19-1.19-10.92-3.75c-2.73-2.56-4.1-5.8-4.1-9.73s1.37-7.34,4.1-9.73ZM791.19,148.65v132.95h-22.02v-132.95h22.02Z"/>
    <path class="st0" d="M933.86,161.45c9.56,9.9,14.34,24.23,14.34,43.01v77.14h-22.02v-75.26c0-13.31-3.41-23.38-10.24-30.55s-16.04-10.58-27.65-10.58-21.84,3.93-29.01,11.78c-7.34,7.85-10.92,19.28-10.92,34.3v70.48h-22.02v-132.95h22.02v31.4c3.41-10.75,9.39-19.11,18.09-24.92,8.7-5.8,18.6-8.7,29.87-8.7s27.99,4.95,37.55,14.85h0Z"/>
    <path class="st0" d="M1083.02,160.59c11.09,9.05,17.92,21.16,20.65,36.35h-23.21c-1.54-9.56-5.97-17.07-13.14-22.36-7.17-5.46-16.04-8.19-26.79-8.19s-14.85,1.71-21.16,5.29-11.43,9.05-15.36,16.38-5.8,16.38-5.8,27.31,1.88,19.97,5.8,27.31c3.93,7.34,9.05,12.8,15.36,16.38s13.48,5.29,21.16,5.29,19.63-2.73,26.79-8.19c7.17-5.46,11.61-12.97,13.14-22.53h23.21c-2.56,15.36-9.39,27.48-20.65,36.35-11.09,8.87-25.26,13.48-42.15,13.48s-24.06-2.73-33.96-8.19c-9.9-5.46-17.58-13.31-23.04-23.55-5.63-10.24-8.36-22.36-8.36-36.18s2.73-25.94,8.36-36.35c5.63-10.41,13.31-18.26,23.04-23.72,9.9-5.46,21.16-8.19,33.96-8.19s31.06,4.44,42.15,13.48v-.17Z"/>
    <path class="st0" d="M1219.72,156.67c8.87,6.49,15.19,15.02,18.77,25.94v-33.96h22.02v132.95h-22.02v-33.96c-3.58,10.75-9.73,19.46-18.77,25.94-8.87,6.49-19.97,9.73-32.77,9.73s-22.19-2.73-31.4-8.19c-9.22-5.46-16.38-13.31-21.67-23.55-5.29-10.24-7.85-22.36-7.85-36.18s2.56-25.94,7.85-36.35c5.29-10.41,12.46-18.26,21.67-23.72s19.63-8.19,31.4-8.19,23.89,3.24,32.77,9.73v-.17ZM1160.67,179.54c-8.19,8.7-12.29,20.48-12.29,35.67s4.1,27.14,12.29,35.67c8.19,8.7,18.94,12.97,32.6,12.97s16.55-2.05,23.38-5.97c6.83-4.1,12.29-9.73,16.04-17.07,3.93-7.34,5.8-15.87,5.8-25.6s-1.88-18.26-5.8-25.6c-3.93-7.34-9.22-13.14-16.04-17.07-6.83-3.93-14.68-5.97-23.38-5.97-13.48,0-24.4,4.27-32.6,12.97Z"/>
    <path class="st0" d="M1377.41,102.4v179.2h-22.02V102.4h22.02Z"/>
    <path class="st0" d="M1507.29,155.3c10.07,5.46,17.92,13.48,23.72,23.72,5.8,10.41,8.53,22.36,8.53,36.35s-2.9,25.94-8.53,36.18c-5.8,10.24-13.65,18.09-23.72,23.55-10.07,5.46-21.5,8.19-34.3,8.19s-24.23-2.73-34.3-8.19c-10.07-5.46-18.09-13.31-23.89-23.55-5.8-10.24-8.7-22.36-8.7-36.18s2.9-25.94,8.7-36.35c5.8-10.41,13.82-18.26,23.89-23.72s21.5-8.19,34.3-8.19,24.23,2.73,34.3,8.19ZM1451.14,171.69c-6.66,3.58-12.12,9.05-16.21,16.38-4.1,7.34-6.14,16.38-6.14,27.31s2.05,19.63,6.14,26.96c4.1,7.34,9.56,12.8,16.21,16.38s13.99,5.29,21.84,5.29,15.19-1.71,21.84-5.29c6.66-3.58,12.12-9.05,16.21-16.38,4.1-7.34,6.14-16.38,6.14-26.96s-2.05-19.97-6.14-27.31c-4.1-7.34-9.56-12.8-16.21-16.38s-13.99-5.29-21.84-5.29-15.19,1.71-21.84,5.29Z"/>
    <path class="st0" d="M1646.21,158.72c9.05,7.85,14.68,18.43,16.55,31.57h-20.99c-1.02-7.85-4.27-14.34-9.73-19.46-5.46-5.12-12.97-7.68-22.36-7.68s-14.17,1.88-18.6,5.63-6.66,8.87-6.66,15.36,1.54,8.7,4.44,11.78c2.9,3.07,6.66,5.29,11.09,6.83,4.44,1.54,10.58,3.24,18.26,4.95,9.9,2.22,17.75,4.61,23.89,6.83,5.97,2.39,11.26,6.14,15.53,11.26s6.49,12.12,6.49,20.82-4.1,19.63-12.29,26.45c-8.19,6.83-18.94,10.24-32.6,10.24s-28.67-3.75-38.74-11.43c-10.07-7.51-15.87-18.09-17.75-31.74h21.33c.85,8.02,4.27,14.68,10.58,19.63,6.14,4.95,14.34,7.51,24.58,7.51s13.48-1.88,17.75-5.8c4.27-3.93,6.49-8.87,6.49-15.19s-1.54-9.22-4.61-12.29c-3.07-3.07-6.83-5.46-11.43-7-4.44-1.54-10.75-3.24-18.6-5.12-9.9-2.22-17.75-4.44-23.55-6.83-5.97-2.22-10.92-5.8-15.02-10.75-4.1-4.95-6.14-11.61-6.14-19.97s4.1-20.14,12.29-26.96c8.19-6.83,19.46-10.24,33.62-10.24s27.14,3.93,36.18,11.78v-.17Z"/>
    <path class="st0" d="M1853.39,242.17h-75.09l-14.34,39.42h-23.72l63.15-167.59h24.92l62.97,167.59h-23.72l-14.34-39.42h.17ZM1847.08,224.93l-31.23-86.18-31.23,86.18h62.46Z"/>
    <path class="st0" d="M2018.42,155.3c9.22,5.46,16.38,13.48,21.67,23.72,5.29,10.41,7.85,22.36,7.85,36.35s-2.56,25.94-7.85,36.18-12.46,18.09-21.67,23.55c-9.22,5.46-19.63,8.19-31.4,8.19s-23.89-3.24-32.77-9.73-15.19-15.19-18.6-25.77v33.96h-22.02V102.57h22.02v80.21c3.41-10.58,9.56-19.28,18.6-25.77,9.05-6.49,19.97-9.73,32.77-9.73s22.36,2.73,31.4,8.19v-.17ZM1957.5,172.54c-7,3.93-12.29,9.73-16.21,17.07-3.93,7.51-5.8,16.04-5.8,25.6s1.88,18.26,5.8,25.6c3.93,7.34,9.22,12.97,16.21,17.07s14.68,5.97,23.21,5.97c13.65,0,24.58-4.27,32.77-12.97,8.19-8.7,12.29-20.48,12.29-35.67s-4.1-27.14-12.29-35.67c-8.19-8.7-19.11-12.97-32.77-12.97s-16.38,2.05-23.21,5.97Z"/>
    <path class="st0" d="M2198.13,219.81h-106.32c.51,15.19,4.78,26.62,12.97,34.13,8.19,7.51,18.09,11.43,29.87,11.43s19.63-2.73,26.79-8.19c7.17-5.46,11.61-12.63,13.14-21.67h23.55c-1.54,9.22-5.12,17.41-10.75,24.75-5.63,7.34-12.8,12.97-21.67,16.9-8.87,4.1-18.94,5.97-30.04,5.97s-24.06-2.73-33.96-8.19-17.58-13.31-23.04-23.55c-5.63-10.24-8.36-22.36-8.36-36.18s2.73-25.94,8.36-36.35c5.63-10.41,13.31-18.26,23.04-23.72,9.9-5.46,21.16-8.19,33.96-8.19s24.23,2.73,33.79,8.19c9.56,5.46,16.9,12.8,22.02,22.02,5.12,9.22,7.68,19.28,7.68,30.55s-.34,8.7-1.02,12.12h0ZM2171.85,184.49c-3.75-6.66-8.87-11.61-15.19-14.85-6.49-3.24-13.48-4.78-20.99-4.78-12.12,0-22.19,3.75-30.55,11.26-8.19,7.51-12.63,18.6-13.31,33.11h84.99c.51-9.9-1.19-18.09-4.78-24.75h-.17Z"/>
    <path class="st0" d="M2291.31,262.31v19.28h-16.38c-13.48,0-23.72-3.24-30.38-9.73s-10.07-17.24-10.07-32.43v-71.68h-19.8v-19.11h19.8v-33.11h22.19v33.11h34.3v19.11h-34.3v72.19c0,8.53,1.54,14.34,4.78,17.58,3.24,3.24,8.53,4.78,16.38,4.78h13.48Z"/>
    <path class="st0" d="M2412.65,155.3c10.07,5.46,17.92,13.48,23.72,23.72,5.8,10.41,8.53,22.36,8.53,36.35s-2.9,25.94-8.53,36.18c-5.8,10.24-13.65,18.09-23.72,23.55-10.07,5.46-21.5,8.19-34.3,8.19s-24.23-2.73-34.3-8.19c-10.07-5.46-18.09-13.31-23.89-23.55s-8.7-22.36-8.7-36.18,2.9-25.94,8.7-36.35c5.8-10.41,13.82-18.26,23.89-23.72s21.5-8.19,34.3-8.19,24.23,2.73,34.3,8.19ZM2356.5,171.69c-6.66,3.58-12.12,9.05-16.21,16.38s-6.14,16.38-6.14,27.31,2.05,19.63,6.14,26.96,9.56,12.8,16.21,16.38,13.99,5.29,21.84,5.29,15.19-1.71,21.84-5.29,12.12-9.05,16.21-16.38c4.1-7.34,6.14-16.38,6.14-26.96s-2.05-19.97-6.14-27.31c-4.1-7.34-9.56-12.8-16.21-16.38s-13.99-5.29-21.84-5.29-15.19,1.71-21.84,5.29Z"/>
    <path class="st0" d="M2551.57,158.72c9.05,7.85,14.68,18.43,16.55,31.57h-20.99c-1.02-7.85-4.27-14.34-9.73-19.46s-12.97-7.68-22.36-7.68-14.17,1.88-18.6,5.63-6.66,8.87-6.66,15.36,1.54,8.7,4.44,11.78c2.9,3.07,6.66,5.29,11.09,6.83s10.58,3.24,18.26,4.95c9.9,2.22,17.75,4.61,23.89,6.83,5.97,2.39,11.26,6.14,15.53,11.26,4.27,5.12,6.49,12.12,6.49,20.82s-4.1,19.63-12.29,26.45c-8.19,6.83-18.94,10.24-32.6,10.24s-28.67-3.75-38.74-11.43c-10.07-7.51-15.87-18.09-17.75-31.74h21.33c.85,8.02,4.27,14.68,10.58,19.63,6.14,4.95,14.34,7.51,24.58,7.51s13.48-1.88,17.75-5.8c4.27-3.93,6.49-8.87,6.49-15.19s-1.54-9.22-4.61-12.29c-3.07-3.07-6.83-5.46-11.43-7-4.44-1.54-10.75-3.24-18.6-5.12-9.9-2.22-17.75-4.44-23.55-6.83-5.97-2.22-10.92-5.8-15.02-10.75-4.1-4.95-6.14-11.61-6.14-19.97s4.1-20.14,12.29-26.96c8.19-6.83,19.46-10.24,33.62-10.24s27.14,3.93,36.18,11.78v-.17Z"/>
  </g>
</svg>